<svg xmlns="http://www.w3.org/2000/svg" width="100%" height="100%" viewBox="0 0 120 120" preserveAspectRatio="xMidYMid slice">
  <defs>
    <!-- Gradient Definitions -->
    <linearGradient id="waveGradient1" x1="0%" y1="100%" x2="100%" y2="0%">
      <stop offset="0%" style="stop-color: #64ffda; stop-opacity: 1" />
      <stop offset="100%" style="stop-color: #3fbbb8; stop-opacity: 1" />
    </linearGradient>
    <linearGradient id="waveGradient2" x1="0%" y1="100%" x2="100%" y2="0%">
      <stop offset="0%" style="stop-color: #3fbbb8; stop-opacity: 1" />
      <stop offset="100%" style="stop-color: #64ffda; stop-opacity: 1" />
    </linearGradient>
    <linearGradient id="waveGradient3" x1="0%" y1="100%" x2="100%" y2="0%">
      <stop offset="0%" style="stop-color: #3fbbb8; stop-opacity: 0.5" />
      <stop offset="100%" style="stop-color: #64ffda; stop-opacity: 0.7" />
    </linearGradient>
  </defs>
  
  <!-- First Wave -->
  <path fill="url(#waveGradient1)" d="M0,60 C20,80 40,40 60,60 C80,80 100,40 120,60 V120 H0 Z">
    <animate attributeName="d" values="M0,60 C20,80 40,40 60,60 C80,80 100,40 120,60 V120 H0 Z;
                                      M0,50 C20,70 40,30 60,50 C80,70 100,30 120,50 V120 H0 Z;
                                      M0,60 C20,80 40,40 60,60 C80,80 100,40 120,60 V120 H0 Z"
              dur="6s" keyTimes="0;0.5;1" repeatCount="indefinite"/>
  </path>

  <!-- Second Wave -->
  <path fill="url(#waveGradient2)" d="M0,70 C20,90 40,50 60,70 C80,90 100,50 120,70 V120 H0 Z">
    <animate attributeName="d" values="M0,70 C20,90 40,50 60,70 C80,90 100,50 120,70 V120 H0 Z;
                                      M0,60 C20,80 40,40 60,60 C80,80 100,40 120,60 V120 H0 Z;
                                      M0,70 C20,90 40,50 60,70 C80,90 100,50 120,70 V120 H0 Z"
              dur="4s" keyTimes="0;0.5;1" repeatCount="indefinite"/>
  </path>

  <!-- Third Wave (more transparent and faster) -->
  <path fill="url(#waveGradient3)" d="M0,80 C20,100 40,60 60,80 C80,100 100,60 120,80 V120 H0 Z">
    <animate attributeName="d" values="M0,80 C20,100 40,60 60,80 C80,100 100,60 120,80 V120 H0 Z;
                                      M0,90 C20,110 40,70 60,90 C80,110 100,70 120,90 V120 H0 Z;
                                      M0,80 C20,100 40,60 60,80 C80,100 100,60 120,80 V120 H0 Z"
              dur="3s" keyTimes="0;0.5;1" repeatCount="indefinite"/>
  </path>

</svg>
