<?xml version="1.0" standalone="no"?>
<!DOCTYPE svg PUBLIC "-//W3C//DTD SVG 20010904//EN"
 "http://www.w3.org/TR/2001/REC-SVG-20010904/DTD/svg10.dtd">
<svg version="1.0" xmlns="http://www.w3.org/2000/svg"
 width="225.000000pt" height="225.000000pt" viewBox="0 0 225.000000 225.000000"
 preserveAspectRatio="xMidYMid meet">

<g transform="translate(0.000000,225.000000) scale(0.100000,-0.100000)"
fill="#FFA500" stroke="none">
<path d="M993 2240 c-262 -33 -495 -150 -674 -337 -157 -164 -256 -358 -300
-583 -16 -84 -16 -306 0 -390 69 -356 291 -651 608 -810 165 -82 302 -113 498
-113 316 0 584 112 802 336 426 437 426 1127 0 1564 -159 164 -356 271 -577
317 -97 20 -266 27 -357 16z m262 -21 c672 -82 1115 -749 929 -1396 -103 -361
-395 -652 -757 -757 -382 -111 -792 -3 -1078 283 -432 432 -432 1120 0 1552
244 244 571 359 906 318z"/>
<path d="M920 2155 c-206 -41 -387 -140 -540 -294 -176 -177 -272 -380 -301
-634 -25 -223 36 -475 161 -671 l31 -49 74 73 74 74 -34 60 c-153 276 -139
618 36 881 63 94 178 202 276 260 83 48 224 98 311 110 l52 7 0 99 0 99 -37
-1 c-21 0 -67 -7 -103 -14z m44 -53 c17 -61 17 -82 2 -82 -10 0 -16 9 -16 23
0 37 -12 70 -20 57 -4 -7 -13 -9 -20 -5 -10 6 -9 11 4 21 21 15 43 9 50 -14z
m-108 -7 c-3 -8 1 -33 9 -55 8 -22 13 -40 12 -41 -1 0 -9 -2 -17 -4 -8 -2 -22
-6 -31 -10 -10 -3 -20 -2 -24 4 -9 15 -27 14 -23 -1 2 -7 -2 -15 -7 -17 -6 -2
-16 15 -24 37 -12 33 -13 43 -2 56 15 17 76 23 66 6 -3 -5 -17 -10 -31 -10
-24 0 -28 -7 -18 -33 5 -15 44 -12 44 4 0 5 -7 6 -15 3 -8 -4 -15 -2 -15 4 0
15 37 21 50 8 10 -8 11 -5 6 17 -7 30 -1 47 16 47 5 0 8 -7 4 -15z m74 -31 c0
-7 -8 -18 -17 -24 -15 -9 -14 -10 6 -4 17 4 22 2 19 -7 -3 -8 -16 -14 -29 -14
-20 0 -24 5 -25 30 -1 17 3 33 9 37 14 9 37 -2 37 -18z m-190 -74 c14 -35 14
-35 -21 -43 -30 -8 -55 13 -45 38 7 19 28 20 24 1 -2 -8 2 -14 7 -13 6 1 9 12
7 25 -4 32 13 27 28 -8z m-147 -21 c-33 -12 -34 -23 -8 -62 14 -20 21 -38 15
-42 -13 -8 -64 71 -56 90 6 18 46 35 60 27 5 -3 0 -9 -11 -13z m77 -22 c18
-31 6 -48 -15 -21 -10 13 -13 14 -10 3 3 -9 -1 -22 -10 -29 -13 -11 -19 -11
-33 4 -16 16 -16 18 6 36 12 10 22 23 22 30 0 19 24 5 40 -23z m-98 -79 l41
-41 -23 -19 c-25 -20 -36 -22 -45 -8 -3 6 3 10 14 10 11 0 23 5 27 12 5 8 2 9
-9 5 -10 -3 -17 -2 -17 4 0 6 -7 6 -19 -1 -28 -15 -39 -13 -51 11 -14 24 3 51
26 42 10 -4 12 0 8 11 -10 26 3 19 48 -26z m-112 -73 c25 -26 21 -47 -4 -26
-16 13 -36 7 -36 -10 0 -6 9 -7 21 -4 15 5 20 3 17 -6 -7 -20 -47 -23 -54 -5
-6 15 15 76 27 76 3 0 16 -11 29 -25z m-58 -66 l29 -21 -20 -20 c-12 -10 -21
-23 -21 -28 0 -6 -12 -10 -26 -10 -22 0 -24 3 -18 22 6 20 5 21 -10 9 -21 -17
-21 -37 1 -49 10 -6 14 -16 9 -27 -5 -14 -9 -16 -18 -7 -7 7 -21 11 -33 11
-16 -1 -17 -2 -2 -6 23 -6 22 -23 -3 -23 -26 0 -27 40 -1 47 13 3 17 11 14 24
-3 10 -1 19 5 19 5 0 12 9 15 20 7 28 47 27 47 -1 0 -18 2 -19 15 -9 14 12 13
15 -5 35 -36 39 -24 47 22 14z m-44 -198 c4 -12 -37 -55 -45 -47 -4 3 2 16 13
28 15 18 16 20 2 9 -10 -7 -18 -9 -18 -3 0 5 -7 13 -16 16 -11 4 -14 1 -9 -13
6 -20 -20 -49 -33 -36 -4 4 -1 10 6 12 24 9 12 25 -14 19 -19 -5 -25 -3 -22 6
3 7 15 15 29 18 21 5 22 7 6 13 -10 4 -16 11 -13 15 7 11 109 -22 114 -37z
m-120 -97 c20 -6 22 -11 17 -42 -7 -42 -20 -53 -55 -45 -33 8 -32 7 -24 37 8
33 41 35 54 4 l9 -23 0 22 c1 16 -6 24 -24 29 -14 3 -25 10 -25 15 0 10 16 11
48 3z m-23 -104 c14 -5 24 -14 20 -20 -3 -5 -12 -7 -19 -4 -17 7 -30 -26 -16
-40 8 -8 9 -6 5 7 -6 13 -2 17 14 17 25 0 26 -3 5 -35 -12 -18 -20 -22 -33
-16 -9 5 -20 9 -26 9 -5 0 -12 8 -15 18 -6 17 -7 17 -13 0 -10 -25 0 -36 31
-36 30 0 60 -15 50 -25 -3 -4 -27 -3 -52 0 -32 5 -47 13 -51 26 -9 26 10 56
40 63 24 6 36 26 15 26 -5 0 -10 5 -10 10 0 13 21 13 55 0z m1 -155 c9 -23
-16 -46 -45 -43 -18 2 -27 10 -29 26 -2 12 1 22 7 22 6 0 11 -8 12 -17 0 -15
2 -15 9 2 7 17 9 17 9 3 1 -10 6 -18 12 -18 6 0 8 9 4 20 -7 23 13 28 21 5z
m-1 -125 c0 -17 -7 -26 -25 -30 -30 -8 -50 5 -50 31 0 24 20 25 21 2 0 -16 1
-15 8 2 8 19 8 19 20 0 12 -19 12 -19 7 3 -3 15 0 22 7 19 7 -2 12 -14 12 -27z
m10 -49 c6 -1 1 -8 -9 -16 -11 -9 -14 -15 -7 -15 26 0 6 -35 -21 -37 -31 -2
-47 14 -24 23 26 10 18 23 -16 26 -54 5 -42 23 15 22 28 -1 57 -2 62 -3z m15
-81 c0 -5 -5 -10 -12 -10 -9 0 -9 -3 0 -12 7 -7 12 -23 12 -36 0 -19 -5 -23
-22 -20 -13 2 -24 11 -27 23 -2 11 -11 25 -20 32 -14 10 -14 12 -1 16 8 3 22
8 30 10 25 9 40 8 40 -3z m43 -133 c3 -7 -1 -21 -9 -32 -14 -18 -14 -18 -30 1
-13 16 -15 16 -10 2 3 -10 1 -20 -4 -23 -11 -7 -23 31 -15 46 4 6 16 9 26 6
11 -3 19 -1 19 4 0 14 17 11 23 -4z m17 -55 c0 -5 -16 -16 -36 -26 -20 -9 -33
-20 -30 -23 4 -4 22 1 41 12 41 21 46 18 48 -27 2 -28 -1 -33 -20 -33 -13 0
-23 5 -22 10 0 6 7 9 16 7 9 -2 13 2 10 10 -2 7 -11 11 -18 9 -8 -2 -29 -6
-46 -9 -28 -4 -33 -1 -33 17 0 13 12 29 33 41 34 21 57 26 57 12z"/>
<path d="M826 2012 c-3 -5 1 -9 9 -9 8 0 15 4 15 9 0 4 -4 8 -9 8 -6 0 -12 -4
-15 -8z"/>
<path d="M615 1920 c3 -5 8 -10 11 -10 2 0 4 5 4 10 0 6 -5 10 -11 10 -5 0 -7
-4 -4 -10z"/>
<path d="M526 1853 c-6 -14 -5 -15 5 -6 7 7 10 15 7 18 -3 3 -9 -2 -12 -12z"/>
<path d="M190 1380 c0 -5 5 -10 10 -10 6 0 10 5 10 10 0 6 -4 10 -10 10 -5 0
-10 -4 -10 -10z"/>
<path d="M210 869 c0 -5 5 -7 10 -4 6 3 10 8 10 11 0 2 -4 4 -10 4 -5 0 -10
-5 -10 -11z"/>
<path d="M1190 2072 l0 -98 91 -17 c338 -64 606 -329 674 -666 21 -103 16
-283 -10 -385 -10 -37 -40 -112 -66 -165 l-49 -96 67 -67 c37 -38 71 -68 74
-68 11 0 89 127 116 188 239 542 -17 1172 -570 1401 -85 35 -230 70 -289 71
l-38 0 0 -98z m104 13 c3 10 9 16 12 13 8 -9 -19 -59 -30 -55 -6 2 -12 19 -14
38 -2 33 -2 33 11 10 12 -21 15 -21 21 -6z m96 -11 c31 -7 32 -8 24 -27 -3 -9
-13 -14 -22 -11 -13 4 -12 2 3 -11 19 -15 20 -15 29 9 11 30 15 31 41 12 15
-11 17 -17 7 -28 -6 -8 -9 -18 -5 -21 3 -4 2 -7 -4 -7 -6 0 -14 8 -17 17 -5
12 -9 14 -14 6 -5 -9 -17 -10 -37 -4 -24 6 -29 13 -27 33 2 19 -3 27 -18 31
-11 3 -20 1 -20 -4 0 -5 8 -9 18 -10 11 -1 9 -4 -8 -9 -17 -5 -19 -8 -7 -9 16
-1 26 -21 10 -21 -23 1 -35 20 -29 45 6 22 11 26 29 21 12 -4 33 -9 47 -12z
m156 -73 c17 14 18 5 4 -22 -13 -23 2 -26 20 -4 20 24 30 18 30 -17 l0 -33 18
23 c16 20 19 21 37 8 16 -12 18 -17 8 -27 -20 -20 -15 -34 5 -16 25 23 35 21
26 -5 -6 -20 -5 -21 10 -9 25 21 31 5 11 -26 l-18 -28 27 18 c34 22 48 15 36
-19 -15 -37 -12 -40 13 -15 21 19 25 20 37 6 15 -18 7 -43 -17 -52 -11 -4 -25
3 -42 24 -14 16 -34 33 -45 36 -10 4 -16 13 -13 22 4 10 1 12 -10 8 -13 -5
-15 -2 -9 13 5 15 4 16 -5 7 -16 -16 -39 -5 -39 20 0 16 -3 18 -11 10 -14 -14
-39 -6 -39 14 0 7 -6 13 -12 12 -28 -3 -39 2 -48 24 -5 12 -9 16 -9 10 -1 -7
-6 -13 -11 -13 -6 0 -3 15 7 33 16 30 18 31 21 9 3 -19 6 -21 18 -11z m328
-237 c6 -17 -18 -43 -41 -44 -19 0 -22 24 -5 43 19 21 38 22 46 1z m40 -50 c4
-9 1 -23 -6 -32 -11 -13 -9 -14 12 -8 l25 7 -23 -18 c-13 -10 -20 -22 -16 -26
4 -4 13 -2 20 4 7 6 19 9 26 7 8 -3 4 -9 -10 -17 -31 -16 -56 -7 -49 19 4 15
0 20 -13 20 -22 0 -34 28 -19 46 16 19 45 18 53 -2z m66 -103 c8 -16 7 -20 -7
-19 -10 0 -27 -3 -38 -7 -17 -7 -16 -4 5 17 14 14 26 26 27 27 1 1 7 -8 13
-18z m10 -46 c-10 -12 -10 -15 4 -15 24 0 19 -15 -10 -29 -23 -10 -25 -9 -19
8 4 14 0 21 -12 24 -15 3 -14 6 7 15 35 15 44 14 30 -3z m44 -81 c9 -8 13 -21
9 -27 -5 -8 -9 -6 -11 6 -4 18 -27 23 -37 7 -3 -5 1 -10 10 -10 18 0 16 -21
-2 -27 -17 -6 -26 36 -13 52 16 19 25 19 44 -1z m4 -66 c-38 -13 -35 -29 4
-21 22 4 29 3 24 -5 -4 -7 -20 -12 -37 -12 -21 0 -29 5 -29 18 0 25 9 32 39
31 l26 -1 -27 -10z m22 -70 l25 -4 -28 -8 c-31 -9 -54 4 -42 24 5 8 10 9 14 2
3 -5 17 -12 31 -14z m29 -44 c3 -4 1 -9 -5 -11 -6 -2 -20 -10 -30 -18 -18 -14
-18 -14 7 -15 15 0 29 -6 32 -13 8 -20 -9 -41 -27 -34 -8 3 -18 2 -21 -3 -4
-6 0 -10 7 -10 8 0 23 -6 33 -14 18 -13 17 -14 -14 -30 -33 -17 -33 -17 -26 5
5 14 2 25 -6 30 -11 7 -12 12 -1 29 9 14 9 20 1 20 -7 0 -9 11 -6 29 3 16 1
34 -6 41 -10 10 -5 11 22 6 19 -3 37 -9 40 -12z m9 -187 c-2 -11 -8 -12 -33
-1 l-30 13 28 1 c15 0 27 6 28 13 0 9 2 9 6 0 2 -7 3 -19 1 -26z m-4 -58 c-3
-6 -15 -9 -25 -6 -31 8 -32 -10 -2 -21 l28 -10 -27 -1 c-15 -1 -30 4 -33 9
-13 21 4 40 35 40 20 0 29 -4 24 -11z m-9 -59 c3 -6 -4 -14 -17 -19 -17 -7
-19 -10 -5 -10 9 -1 17 -5 17 -9 0 -5 -13 -7 -30 -4 -33 5 -39 16 -13 26 15 6
15 8 3 16 -12 7 -9 10 12 10 15 0 30 -5 33 -10z m-15 -60 c12 -8 9 -10 -12
-10 -15 0 -30 5 -33 10 -8 13 25 13 45 0z m-12 -27 c-23 -6 -23 -19 -2 -27 9
-4 14 -9 11 -13 -8 -7 -57 24 -57 37 0 6 15 9 33 9 17 -1 24 -3 15 -6z m-6
-69 c-5 -25 -6 -26 -25 -18 -9 3 -14 13 -11 22 5 13 2 13 -10 -2 -16 -20 -16
-20 -16 0 0 29 7 33 38 25 19 -6 26 -13 24 -27z m-12 -40 c10 -11 -19 -39 -39
-37 -12 2 -21 -2 -21 -7 0 -6 7 -10 16 -10 19 0 15 -31 -6 -38 -13 -4 -13 -3
-2 11 12 14 11 15 -12 4 -24 -11 -25 -12 -6 -21 20 -9 27 -26 11 -26 -14 0
-57 39 -43 40 6 0 12 9 12 20 0 11 5 20 10 20 6 0 10 7 10 15 0 8 7 15 16 15
14 0 15 2 3 17 -13 15 -11 16 16 9 16 -4 32 -10 35 -12z m-72 -137 c18 -1 15
-15 -11 -41 -13 -13 -21 -29 -19 -37 3 -8 -7 -1 -22 14 -31 34 -32 37 -6 30
11 -3 28 -2 37 1 16 7 15 9 -7 28 -20 16 -21 18 -5 13 11 -4 26 -8 33 -8z"/>
<path d="M1635 1940 c3 -5 8 -10 11 -10 2 0 4 5 4 10 0 6 -5 10 -11 10 -5 0
-7 -4 -4 -10z"/>
<path d="M1781 1816 c-8 -10 -9 -16 -1 -21 5 -3 13 1 16 10 9 22 -1 29 -15 11z"/>
<path d="M1831 1744 c0 -11 3 -14 6 -6 3 7 2 16 -1 19 -3 4 -6 -2 -5 -13z"/>
<path d="M1873 1705 c-3 -9 -3 -18 0 -21 9 -9 27 6 27 22 0 19 -19 18 -27 -1z"/>
<path d="M1960 739 c0 -5 5 -7 10 -4 6 3 10 8 10 11 0 2 -4 4 -10 4 -5 0 -10
-5 -10 -11z"/>
<path d="M1125 1818 c-47 -17 -93 -56 -115 -98 l-20 -39 38 5 c103 14 102 13
102 42 0 15 9 44 20 65 22 40 21 41 -25 25z"/>
<path d="M965 1808 c-56 -30 -96 -85 -110 -145 l-7 -33 64 24 63 24 -3 44 c-2
23 1 55 7 71 6 15 9 27 8 27 -1 0 -11 -6 -22 -12z"/>
<path d="M1235 1781 c-22 -10 -53 -32 -69 -49 l-28 -31 38 -6 c109 -17 101
-18 108 15 3 17 19 45 35 61 l29 29 -36 0 c-20 0 -55 -9 -77 -19z"/>
<path d="M778 1730 c-35 -47 -48 -82 -48 -136 l0 -45 28 16 c15 9 40 27 56 40
26 20 27 25 15 46 -7 13 -16 44 -19 69 l-5 45 -27 -35z"/>
<path d="M1384 1731 c-32 -8 -94 -41 -94 -51 0 -3 29 -17 63 -31 l64 -25 16
28 c9 15 30 36 47 47 18 10 28 21 23 24 -17 10 -89 15 -119 8z"/>
<path d="M634 1618 c-21 -46 -25 -141 -8 -171 9 -16 15 -12 54 38 39 50 41 57
26 68 -9 7 -24 34 -34 60 l-18 48 -20 -43z"/>
<path d="M1450 1629 l-25 -10 30 -25 c79 -65 78 -65 104 -38 13 14 37 28 53
31 43 8 42 19 -2 37 -45 18 -122 20 -160 5z"/>
<path d="M1142 1621 c2 -3 35 -59 73 -123 l70 -117 133 -1 c74 0 132 4 132 9
0 5 -24 35 -52 67 -56 61 -126 110 -196 138 -45 17 -165 38 -160 27z"/>
<path d="M984 1606 c-80 -25 -164 -79 -224 -143 -33 -35 -60 -68 -60 -74 0 -6
49 -9 132 -7 l131 3 41 70 c23 39 54 91 69 118 l28 47 -38 -1 c-21 0 -56 -6
-79 -13z"/>
<path d="M1058 1493 l-64 -108 125 -3 c68 -1 126 -1 128 1 2 3 -25 53 -61 111
l-64 107 -64 -108z"/>
<path d="M1550 1523 c0 -4 16 -32 36 -61 l37 -52 26 16 c14 10 45 17 70 17
l45 0 -39 34 c-21 18 -54 37 -74 43 -42 12 -101 13 -101 3z"/>
<path d="M526 1498 c-10 -41 -6 -108 9 -145 29 -70 36 -70 65 -1 l28 63 -30
24 c-17 13 -38 37 -48 53 -17 29 -17 29 -24 6z"/>
<path d="M1657 1337 c26 -65 26 -65 57 -56 20 6 43 5 64 -2 18 -6 35 -9 38 -7
2 3 -10 23 -26 45 -31 42 -74 68 -129 79 l-30 6 26 -65z"/>
<path d="M450 1330 c0 -50 24 -112 60 -152 l37 -42 12 65 c6 36 11 68 11 71 0
3 -11 9 -25 12 -13 3 -40 20 -60 37 -33 29 -35 30 -35 9z"/>
<path d="M710 1345 c0 -3 107 -184 114 -192 1 -1 18 26 38 60 20 34 46 79 58
100 l22 37 -116 0 c-64 0 -116 -2 -116 -5z"/>
<path d="M959 1328 c-7 -13 -19 -34 -28 -48 -14 -21 -10 -20 25 10 23 19 57
40 75 46 l34 12 -47 1 c-39 1 -49 -3 -59 -21z"/>
<path d="M1135 1336 c-99 -16 -157 -44 -195 -97 -94 -131 -6 -302 168 -325 89
-11 181 36 221 113 15 30 14 109 -3 141 -31 59 -116 112 -180 112 -81 0 -167
-64 -180 -133 -16 -87 67 -176 162 -177 151 0 209 171 79 233 -121 58 -232
-51 -149 -144 53 -59 155 -36 155 36 0 53 -69 88 -108 55 -29 -24 -11 -70 28
-70 16 0 18 5 13 26 -8 29 10 30 28 2 25 -40 -54 -67 -87 -30 -52 57 18 133
93 102 106 -44 56 -193 -61 -177 -144 19 -156 204 -14 235 133 29 243 -99 179
-209 -89 -152 -344 -81 -344 96 0 67 60 140 136 165 80 27 206 -12 252 -78 27
-38 45 -98 40 -132 -5 -35 1 -32 25 13 l18 34 -68 111 c-77 127 -63 120 -208
98z"/>
<path d="M1310 1345 c0 -3 107 -184 114 -192 2 -2 108 173 114 189 2 4 -48 8
-112 8 -64 0 -116 -2 -116 -5z"/>
<path d="M1511 1243 c-35 -59 -64 -112 -64 -117 0 -6 29 -58 64 -115 l64 -104
17 40 c32 73 42 181 25 265 -8 40 -21 88 -28 106 l-14 33 -64 -108z"/>
<path d="M655 1298 c-37 -94 -36 -253 3 -353 l19 -48 63 109 c35 59 63 113 63
119 0 12 -112 203 -123 210 -4 3 -15 -14 -25 -37z"/>
<path d="M1690 1243 c0 -10 3 -42 6 -70 7 -51 8 -53 38 -53 17 0 46 -9 64 -20
36 -22 39 -16 16 38 -18 43 -58 88 -96 108 -26 13 -28 13 -28 -3z"/>
<path d="M856 1152 c-13 -26 -13 -31 3 -56 l18 -27 1 55 c0 31 -1 56 -4 56 -2
0 -10 -13 -18 -28z"/>
<path d="M420 1160 c0 -45 61 -129 113 -156 27 -14 27 -14 27 18 0 18 -3 50
-6 71 -6 33 -10 37 -38 37 -17 0 -46 9 -63 20 -18 11 -33 15 -33 10z"/>
<path d="M1696 1063 c-4 -26 -10 -58 -12 -69 -4 -17 0 -23 20 -28 14 -3 41
-20 61 -37 l35 -31 0 24 c0 50 -30 124 -63 157 l-35 33 -6 -49z"/>
<path d="M768 1002 l-56 -97 110 -3 c61 -1 113 -1 115 2 4 3 -105 196 -111
196 0 0 -26 -44 -58 -98z"/>
<path d="M1368 1002 l-56 -97 110 -3 c61 -1 113 -1 115 2 4 3 -105 196 -111
196 0 0 -26 -44 -58 -98z"/>
<path d="M440 974 c0 -26 48 -77 95 -99 80 -40 88 -33 58 43 -22 55 -28 62
-47 55 -27 -9 -44 -9 -78 0 -16 4 -28 4 -28 1z"/>
<path d="M958 933 c18 -26 31 -33 55 -33 l32 0 -25 13 c-14 7 -38 22 -55 33
l-30 19 23 -32z"/>
<path d="M1289 943 c-8 -9 -27 -22 -44 -29 l-30 -13 32 -1 c26 0 36 6 48 30
17 33 15 39 -6 13z"/>
<path d="M1648 891 l-26 -59 30 -22 c16 -12 37 -35 47 -51 18 -30 18 -30 25
-7 11 44 5 113 -14 156 -10 23 -23 42 -28 42 -5 0 -20 -27 -34 -59z"/>
<path d="M1368 873 l-76 -4 -71 -120 c-39 -66 -71 -121 -71 -123 0 -7 108 15
150 30 91 34 211 132 249 202 13 24 24 24 -181 15z"/>
<path d="M700 861 c0 -5 24 -35 53 -67 55 -61 125 -110 195 -138 43 -16 162
-37 162 -28 0 3 -32 58 -72 123 l-72 119 -133 0 c-74 0 -133 -4 -133 -9z"/>
<path d="M1012 848 c8 -13 37 -60 64 -105 27 -46 52 -83 55 -83 4 0 26 33 49
73 24 39 51 87 62 105 l20 32 -132 0 -132 0 14 -22z"/>
<path d="M601 823 c-14 -9 -43 -16 -69 -16 l-46 0 37 -32 c39 -34 95 -55 146
-55 17 0 31 5 31 11 0 9 -33 58 -70 101 -3 4 -16 0 -29 -9z"/>
<path d="M1585 783 c-59 -73 -58 -69 -31 -98 13 -14 27 -42 31 -63 l8 -37 23
50 c26 54 30 114 11 158 l-12 27 -30 -37z"/>
<path d="M693 694 c-12 -13 -35 -27 -52 -30 -41 -8 -39 -22 4 -40 41 -17 112
-18 152 -3 l28 11 -30 24 c-79 65 -78 65 -102 38z"/>
<path d="M1466 665 c-27 -19 -51 -36 -53 -38 -2 -2 3 -17 12 -33 8 -16 15 -47
15 -68 l0 -39 21 19 c38 34 60 91 57 145 l-3 49 -49 -35z"/>
<path d="M830 620 c0 -17 -62 -80 -78 -80 -12 0 -13 -3 -4 -12 21 -21 124 -14
170 12 23 13 42 26 42 29 0 3 -29 18 -65 33 -36 15 -65 23 -65 18z"/>
<path d="M1334 594 l-61 -25 5 -48 c2 -27 -1 -58 -7 -70 -20 -36 5 -25 58 27
34 33 53 60 61 91 6 23 10 44 8 46 -2 2 -30 -8 -64 -21z"/>
<path d="M967 542 c-3 -16 -18 -43 -32 -61 l-27 -31 34 0 c44 1 106 30 142 68
l28 31 -38 6 c-108 17 -101 18 -107 -13z"/>
<path d="M1215 563 c-92 -11 -95 -12 -95 -45 0 -17 -10 -46 -22 -65 l-21 -35
24 7 c53 15 96 44 127 84 31 41 40 63 25 60 -5 -1 -21 -4 -38 -6z"/>
<path d="M421 486 l-72 -73 61 -56 c222 -206 533 -311 820 -277 235 27 443
121 605 273 l60 56 -72 72 -72 72 -61 -57 c-312 -288 -815 -288 -1131 2 l-66
61 -72 -73z m261 -125 c51 -27 119 -57 151 -67 31 -10 57 -24 57 -31 0 -7 -4
-13 -10 -13 -16 0 -31 -72 -18 -87 6 -7 8 -16 4 -20 -10 -10 -36 30 -33 52 1
14 -4 20 -17 20 -24 0 -31 18 -16 44 8 17 8 21 -3 21 -8 0 -18 -14 -23 -31 -5
-17 -13 -29 -19 -27 -5 2 -9 6 -8 11 2 4 -4 7 -12 7 -9 0 -22 14 -29 30 -13
32 -26 30 -27 -4 0 -20 -1 -20 -11 2 -17 33 10 59 43 42 24 -11 24 -11 -1 9
-34 28 -38 27 -57 -14 -18 -37 -36 -47 -31 -17 3 20 -9 42 -24 42 -6 0 -8 -9
-5 -20 3 -11 1 -20 -4 -20 -17 0 -10 67 7 74 15 6 15 8 -1 26 -10 11 -16 20
-13 20 3 0 48 -22 100 -49z m950 10 c-4 -20 31 -71 50 -71 9 0 20 -4 23 -10 4
-6 -6 -10 -24 -10 -17 0 -34 7 -39 16 -8 14 -10 14 -25 0 -21 -22 -34 -20 -40
6 -4 12 -9 19 -12 16 -3 -3 1 -22 9 -42 12 -30 13 -36 1 -36 -7 0 -17 9 -20
20 -7 22 -20 26 -31 8 -4 -6 0 -16 9 -23 27 -19 20 -29 -8 -11 -14 9 -25 12
-25 6 0 -5 -7 -10 -15 -10 -26 0 -16 24 20 49 47 32 38 38 -15 11 -43 -22 -45
-29 -24 -84 4 -9 1 -16 -6 -16 -6 0 -14 9 -17 20 -6 22 -19 26 -25 8 -4 -12
-28 -3 -28 12 0 5 9 12 20 15 11 3 20 10 20 15 0 5 -13 4 -30 -1 -28 -10 -29
-13 -23 -56 4 -34 3 -44 -5 -39 -7 4 -12 14 -12 22 0 21 -17 17 -23 -6 -6 -23
-39 -27 -56 -6 -9 11 -6 12 14 8 15 -2 25 0 25 7 0 6 -8 11 -17 11 -13 0 -14
3 -5 12 18 18 15 27 -8 21 -21 -6 -28 12 -7 20 18 6 47 -11 47 -28 0 -8 5 -15
10 -15 13 0 13 23 0 36 -8 8 16 19 75 39 47 15 112 45 143 66 56 37 80 43 74
20z m-602 -121 c46 -5 110 -10 142 -10 32 0 58 -4 58 -10 0 -5 -4 -10 -8 -10
-13 0 -1 -74 16 -92 19 -22 4 -23 -26 -2 -13 9 -21 22 -18 30 4 11 -1 14 -22
12 -24 -3 -27 0 -24 25 4 43 -15 32 -22 -13 -6 -41 -26 -47 -26 -9 0 21 -16
26 -22 7 -3 -8 -9 -4 -17 10 -11 21 -10 22 20 22 39 0 36 5 -8 13 -31 6 -32 5
-35 -34 -2 -21 -7 -38 -13 -37 -5 2 -9 20 -7 41 3 50 -16 48 -24 -3 -4 -22
-10 -40 -15 -40 -5 0 -9 4 -9 10 0 5 -6 7 -14 4 -8 -3 -12 -13 -9 -22 3 -10
-3 -7 -15 8 -22 26 -20 43 3 33 19 -7 19 2 -1 21 -14 15 -13 16 15 16 17 0 31
5 31 10 0 6 -9 10 -19 10 -27 0 -51 10 -51 22 0 5 8 7 18 4 9 -3 55 -10 102
-16z"/>
<path d="M620 344 c0 -17 22 -14 28 4 2 7 -3 12 -12 12 -9 0 -16 -7 -16 -16z"/>
<path d="M746 284 c-3 -8 -10 -12 -16 -9 -5 3 -10 1 -10 -4 0 -6 9 -11 20 -11
11 0 20 2 20 4 0 2 3 11 6 20 3 9 2 16 -4 16 -5 0 -13 -7 -16 -16z"/>
<path d="M827 263 c-12 -11 -8 -23 8 -23 8 0 15 7 15 15 0 16 -12 20 -23 8z"/>
<path d="M1592 336 c1 -10 8 -17 13 -17 15 1 12 24 -3 29 -9 3 -13 -2 -10 -12z"/>
<path d="M1170 205 c0 -8 5 -15 10 -15 6 0 10 7 10 15 0 8 -4 15 -10 15 -5 0
-10 -7 -10 -15z"/>
</g>
</svg>
